<svg xmlns="http://www.w3.org/2000/svg" viewBox="0 0 500 375" width="500" height="375">
  <rect width="500" height="375" fill="#1E3A5F" rx="12"/>
  <rect x="15" y="15" width="470" height="345" fill="none" stroke="#C5A059" stroke-width="4" rx="8"/>
  <rect x="25" y="25" width="450" height="325" fill="none" stroke="#C5A059" stroke-width="1" stroke-dasharray="6,4" rx="6"/>
  <circle cx="250" cy="110" r="45" fill="#C5A059" opacity="0.2"/>
  <!-- Graduation Cap Icon -->
  <path d="M250 80 L290 100 L250 120 L210 100 Z" fill="#C5A059"/>
  <path d="M225 110 L225 130 C225 138 275 138 275 130 L275 110" fill="none" stroke="#C5A059" stroke-width="3"/>
  <path d="M282 104 L295 125 L295 145" fill="none" stroke="#C5A059" stroke-width="2"/>
  <!-- Certificate Text -->
  <text x="250" y="185" font-family="'Fraunces', 'Georgia', serif" font-size="22" font-weight="bold" fill="#FFFFFF" text-anchor="middle">UNIVERSITY OF CUMBRIA</text>
  <text x="250" y="215" font-family="'Manrope', 'Helvetica', sans-serif" font-size="15" font-weight="600" fill="#C5A059" text-anchor="middle" letter-spacing="1.5">POSTGRADUATE CERTIFICATE IN EDUCATION</text>
  <text x="250" y="240" font-family="'Manrope', 'Helvetica', sans-serif" font-size="13" fill="#E2E8F0" text-anchor="middle">PGCE • Master's Level (75/100) • UK</text>
  <!-- Seal Ribbon -->
  <circle cx="250" cy="290" r="24" fill="#C5A059"/>
  <path d="M240 308 L232 335 L250 325 L268 335 L260 308" fill="#C5A059"/>
  <text x="250" y="295" font-family="'Manrope', sans-serif" font-size="10" font-weight="bold" fill="#1E3A5F" text-anchor="middle">VERIFIED</text>
</svg>
